<svg width="391" height="17" viewBox="0 0 391 17" fill="none" xmlns="http://www.w3.org/2000/svg">
<rect x="-116.5" y="0.5" width="579" height="16" stroke="black"/>
<g opacity="0.8">
<path d="M-113.008 9.749H-114.088L-114.799 7.346V11H-116.203V5.222H-114.484L-113.548 8.309L-112.612 5.222H-110.893V11H-112.288V7.328L-113.008 9.749ZM-110.174 5.222H-108.599V11H-110.174V5.222ZM-105.243 5.222H-103.803V11H-105.153L-106.44 7.967V11H-107.88V5.222H-106.53L-105.243 8.309V5.222ZM-103.081 5.222H-101.506V11H-103.081V5.222ZM-96.7712 9.677V8.858C-96.7712 8.792 -96.7892 8.744 -96.8252 8.714C-96.8612 8.678 -96.9182 8.66 -96.9962 8.66H-97.8602C-98.3282 8.66 -98.6492 8.555 -98.8232 8.345C-98.9912 8.135 -99.0752 7.862 -99.0752 7.526V6.338C-99.0752 6.002 -98.9762 5.732 -98.7782 5.528C-98.5802 5.324 -98.2412 5.222 -97.7612 5.222H-96.5282C-96.0482 5.222 -95.7092 5.324 -95.5112 5.528C-95.3132 5.732 -95.2142 6.002 -95.2142 6.338V7.031H-96.7892V6.545C-96.7892 6.479 -96.8072 6.431 -96.8432 6.401C-96.8792 6.365 -96.9362 6.347 -97.0142 6.347H-97.2752C-97.3532 6.347 -97.4102 6.365 -97.4462 6.401C-97.4822 6.431 -97.5002 6.479 -97.5002 6.545V7.4C-97.5002 7.466 -97.4822 7.517 -97.4462 7.553C-97.4102 7.583 -97.3532 7.598 -97.2752 7.598H-96.4292C-95.9612 7.598 -95.6402 7.697 -95.4662 7.895C-95.2862 8.093 -95.1962 8.36 -95.1962 8.696V9.884C-95.1962 10.22 -95.2952 10.49 -95.4932 10.694C-95.6912 10.898 -96.0302 11 -96.5102 11H-97.7342C-98.2142 11 -98.5562 10.898 -98.7602 10.694C-98.9582 10.49 -99.0572 10.22 -99.0572 9.884V9.191H-97.4822V9.677C-97.4822 9.743 -97.4642 9.794 -97.4282 9.83C-97.3922 9.86 -97.3352 9.875 -97.2572 9.875H-96.9962C-96.9182 9.875 -96.8612 9.86 -96.8252 9.83C-96.7892 9.794 -96.7712 9.743 -96.7712 9.677ZM-94.5643 5.222H-92.9893V11H-94.5643V5.222ZM-89.7774 7.634V6.455C-89.7774 6.389 -89.7954 6.341 -89.8314 6.311C-89.8674 6.275 -89.9244 6.257 -90.0024 6.257H-91.6584V5.222H-89.5254C-89.0454 5.222 -88.7064 5.324 -88.5084 5.528C-88.3044 5.732 -88.2024 6.002 -88.2024 6.338V7.634H-89.7774ZM-89.7774 9.767V7.517H-88.2024V9.884C-88.2024 10.22 -88.3044 10.49 -88.5084 10.694C-88.7064 10.898 -89.0454 11 -89.5254 11H-91.6584V9.965H-90.0024C-89.9244 9.965 -89.8674 9.95 -89.8314 9.92C-89.7954 9.884 -89.7774 9.833 -89.7774 9.767ZM-92.1804 5.222H-90.6054V11H-92.1804V5.222ZM-87.5067 5.222H-85.9317V11H-87.5067V5.222ZM-84.3027 7.526V8.651H-86.8317V7.526L-84.3027 7.526ZM-84.0417 5.222V6.347L-86.9487 6.347V5.222H-84.0417ZM-83.9607 9.875V11H-86.9487V9.875H-83.9607ZM-81.2497 9.677V8.858C-81.2497 8.792 -81.2677 8.744 -81.3037 8.714C-81.3397 8.678 -81.3967 8.66 -81.4747 8.66H-82.3387C-82.8067 8.66 -83.1277 8.555 -83.3017 8.345C-83.4697 8.135 -83.5537 7.862 -83.5537 7.526V6.338C-83.5537 6.002 -83.4547 5.732 -83.2567 5.528C-83.0587 5.324 -82.7197 5.222 -82.2397 5.222H-81.0067C-80.5267 5.222 -80.1877 5.324 -79.9897 5.528C-79.7917 5.732 -79.6927 6.002 -79.6927 6.338V7.031H-81.2677V6.545C-81.2677 6.479 -81.2857 6.431 -81.3217 6.401C-81.3577 6.365 -81.4147 6.347 -81.4927 6.347H-81.7537C-81.8317 6.347 -81.8887 6.365 -81.9247 6.401C-81.9607 6.431 -81.9787 6.479 -81.9787 6.545V7.4C-81.9787 7.466 -81.9607 7.517 -81.9247 7.553C-81.8887 7.583 -81.8317 7.598 -81.7537 7.598H-80.9077C-80.4397 7.598 -80.1187 7.697 -79.9447 7.895C-79.7647 8.093 -79.6747 8.36 -79.6747 8.696V9.884C-79.6747 10.22 -79.7737 10.49 -79.9717 10.694C-80.1697 10.898 -80.5087 11 -80.9887 11H-82.2127C-82.6927 11 -83.0347 10.898 -83.2387 10.694C-83.4367 10.49 -83.5357 10.22 -83.5357 9.884V9.191H-81.9607V9.677C-81.9607 9.743 -81.9427 9.794 -81.9067 9.83C-81.8707 9.86 -81.8137 9.875 -81.7357 9.875H-81.4747C-81.3967 9.875 -81.3397 9.86 -81.3037 9.83C-81.2677 9.794 -81.2497 9.743 -81.2497 9.677ZM-74.8651 7.634V6.545C-74.8651 6.479 -74.8831 6.431 -74.9191 6.401C-74.9551 6.365 -75.0121 6.347 -75.0901 6.347H-75.3871V5.222H-74.6131C-74.1331 5.222 -73.7941 5.324 -73.5961 5.528C-73.3921 5.732 -73.2901 6.002 -73.2901 6.338V7.634H-74.8651ZM-74.8651 9.677V7.517H-73.2901V9.884C-73.2901 10.22 -73.3921 10.49 -73.5961 10.694C-73.7941 10.898 -74.1331 11 -74.6131 11H-75.3871V9.875H-75.0901C-75.0121 9.875 -74.9551 9.86 -74.9191 9.83C-74.8831 9.794 -74.8651 9.743 -74.8651 9.677ZM-75.6931 6.545V7.634H-77.2681V6.338C-77.2681 6.002 -77.1691 5.732 -76.9711 5.528C-76.7671 5.324 -76.4251 5.222 -75.9451 5.222H-75.1711V6.347H-75.4681C-75.5461 6.347 -75.6031 6.365 -75.6391 6.401C-75.6751 6.431 -75.6931 6.479 -75.6931 6.545ZM-75.6931 7.517V9.677C-75.6931 9.743 -75.6751 9.794 -75.6391 9.83C-75.6031 9.86 -75.5461 9.875 -75.4681 9.875H-75.1711V11H-75.9451C-76.4251 11 -76.7671 10.898 -76.9711 10.694C-77.1691 10.49 -77.2681 10.22 -77.2681 9.884V7.517H-75.6931ZM-72.6004 5.222H-71.0254V11H-72.6004V5.222ZM-69.3874 7.751V8.786H-71.9164V7.751H-69.3874ZM-69.1354 5.222V6.347H-72.0424V5.222H-69.1354ZM-64.1348 9.389H-65.4938L-67.1948 5.222H-65.5838L-64.8278 7.661L-64.1258 5.222H-62.5238L-64.1348 9.389ZM-65.6018 8.552H-64.0268V11H-65.6018V8.552ZM-59.7918 7.634V6.545C-59.7918 6.479 -59.8098 6.431 -59.8458 6.401C-59.8818 6.365 -59.9388 6.347 -60.0168 6.347H-60.3138V5.222H-59.5398C-59.0598 5.222 -58.7208 5.324 -58.5228 5.528C-58.3188 5.732 -58.2168 6.002 -58.2168 6.338V7.634H-59.7918ZM-59.7918 9.677V7.517H-58.2168V9.884C-58.2168 10.22 -58.3188 10.49 -58.5228 10.694C-58.7208 10.898 -59.0598 11 -59.5398 11H-60.3138V9.875H-60.0168C-59.9388 9.875 -59.8818 9.86 -59.8458 9.83C-59.8098 9.794 -59.7918 9.743 -59.7918 9.677ZM-60.6198 6.545V7.634H-62.1948V6.338C-62.1948 6.002 -62.0958 5.732 -61.8978 5.528C-61.6938 5.324 -61.3518 5.222 -60.8718 5.222H-60.0978V6.347H-60.3948C-60.4728 6.347 -60.5298 6.365 -60.5658 6.401C-60.6018 6.431 -60.6198 6.479 -60.6198 6.545ZM-60.6198 7.517V9.677C-60.6198 9.743 -60.6018 9.794 -60.5658 9.83C-60.5298 9.86 -60.4728 9.875 -60.3948 9.875H-60.0978V11H-60.8718C-61.3518 11 -61.6938 10.898 -61.8978 10.694C-62.0958 10.49 -62.1948 10.22 -62.1948 9.884V7.517H-60.6198ZM-55.1242 9.677V5.222H-53.5492V9.884C-53.5492 10.22 -53.6512 10.49 -53.8552 10.694C-54.0532 10.898 -54.3922 11 -54.8722 11H-55.6462V9.875H-55.3492C-55.2712 9.875 -55.2142 9.86 -55.1782 9.83C-55.1422 9.794 -55.1242 9.743 -55.1242 9.677ZM-55.9522 5.222V9.677C-55.9522 9.743 -55.9342 9.794 -55.8982 9.83C-55.8622 9.86 -55.8052 9.875 -55.7272 9.875H-55.4302V11H-56.2042C-56.6842 11 -57.0262 10.898 -57.2302 10.694C-57.4282 10.49 -57.5272 10.22 -57.5272 9.884V5.222H-55.9522ZM-50.4041 7.679V6.545C-50.4041 6.479 -50.4221 6.431 -50.4581 6.401C-50.4941 6.365 -50.5511 6.347 -50.6291 6.347H-52.3031V5.222H-50.1521C-49.6721 5.222 -49.3331 5.324 -49.1351 5.528C-48.9311 5.732 -48.8291 6.002 -48.8291 6.338V7.832C-48.8291 8.168 -48.9311 8.438 -49.1351 8.642C-49.3331 8.846 -49.6721 8.948 -50.1521 8.948H-52.3031V7.877H-50.6291C-50.5511 7.877 -50.4941 7.862 -50.4581 7.832C-50.4221 7.796 -50.4041 7.745 -50.4041 7.679ZM-52.8251 5.222H-51.2501V11H-52.8251V5.222ZM-51.4301 8.318H-49.8911L-48.5411 11H-50.2331L-51.4301 8.318ZM-44.8703 6.455V9.767C-44.8703 9.833 -44.8523 9.884 -44.8163 9.92C-44.7803 9.95 -44.7233 9.965 -44.6453 9.965H-44.4113V11H-45.1223C-45.6023 11 -45.9443 10.898 -46.1483 10.694C-46.3463 10.49 -46.4453 10.22 -46.4453 9.884V6.338C-46.4453 6.002 -46.3463 5.732 -46.1483 5.528C-45.9443 5.324 -45.6023 5.222 -45.1223 5.222H-44.4113V6.257H-44.6453C-44.7233 6.257 -44.7803 6.275 -44.8163 6.311C-44.8523 6.341 -44.8703 6.389 -44.8703 6.455ZM-44.1053 7.382V6.455C-44.1053 6.389 -44.1233 6.341 -44.1593 6.311C-44.1953 6.275 -44.2523 6.257 -44.3303 6.257H-44.5643V5.222H-43.8533C-43.3733 5.222 -43.0343 5.324 -42.8363 5.528C-42.6323 5.732 -42.5303 6.002 -42.5303 6.338V7.382H-44.1053ZM-44.1053 9.767V8.876H-42.5303V9.884C-42.5303 10.22 -42.6323 10.49 -42.8363 10.694C-43.0343 10.898 -43.3733 11 -43.8533 11H-44.5643V9.965H-44.3303C-44.2523 9.965 -44.1953 9.95 -44.1593 9.92C-44.1233 9.884 -44.1053 9.833 -44.1053 9.767ZM-39.0642 7.589V8.714H-40.6842V7.589H-39.0642ZM-41.9442 5.222H-40.3962V11H-41.9442V5.222ZM-39.2622 5.222H-37.7142V11H-39.2622V5.222ZM-34.62 7.634V6.545C-34.62 6.479 -34.638 6.431 -34.674 6.401C-34.71 6.365 -34.767 6.347 -34.845 6.347H-35.142V5.222H-34.368C-33.888 5.222 -33.549 5.324 -33.351 5.528C-33.147 5.732 -33.045 6.002 -33.045 6.338V7.634H-34.62ZM-34.62 9.677V7.517H-33.045V9.884C-33.045 10.22 -33.147 10.49 -33.351 10.694C-33.549 10.898 -33.888 11 -34.368 11H-35.142V9.875H-34.845C-34.767 9.875 -34.71 9.86 -34.674 9.83C-34.638 9.794 -34.62 9.743 -34.62 9.677ZM-35.448 6.545V7.634H-37.023V6.338C-37.023 6.002 -36.924 5.732 -36.726 5.528C-36.522 5.324 -36.18 5.222 -35.7 5.222H-34.926V6.347H-35.223C-35.301 6.347 -35.358 6.365 -35.394 6.401C-35.43 6.431 -35.448 6.479 -35.448 6.545ZM-35.448 7.517V9.677C-35.448 9.743 -35.43 9.794 -35.394 9.83C-35.358 9.86 -35.301 9.875 -35.223 9.875H-34.926V11H-35.7C-36.18 11 -36.522 10.898 -36.726 10.694C-36.924 10.49 -37.023 10.22 -37.023 9.884V7.517H-35.448ZM-32.3553 5.222H-30.7803V11H-32.3553V5.222ZM-28.5314 6.455V9.767C-28.5314 9.833 -28.5134 9.884 -28.4774 9.92C-28.4414 9.95 -28.3844 9.965 -28.3064 9.965H-28.0724V11H-28.7834C-29.2634 11 -29.6054 10.898 -29.8094 10.694C-30.0074 10.49 -30.1064 10.22 -30.1064 9.884V6.338C-30.1064 6.002 -30.0074 5.732 -29.8094 5.528C-29.6054 5.324 -29.2634 5.222 -28.7834 5.222H-28.0724V6.257H-28.3064C-28.3844 6.257 -28.4414 6.275 -28.4774 6.311C-28.5134 6.341 -28.5314 6.389 -28.5314 6.455ZM-27.7664 7.382V6.455C-27.7664 6.389 -27.7844 6.341 -27.8204 6.311C-27.8564 6.275 -27.9134 6.257 -27.9914 6.257H-28.2254V5.222H-27.5144C-27.0344 5.222 -26.6954 5.324 -26.4974 5.528C-26.2934 5.732 -26.1914 6.002 -26.1914 6.338V7.382H-27.7664ZM-27.7664 9.767V8.876H-26.1914V9.884C-26.1914 10.22 -26.2934 10.49 -26.4974 10.694C-26.6954 10.898 -27.0344 11 -27.5144 11H-28.2254V9.965H-27.9914C-27.9134 9.965 -27.8564 9.95 -27.8204 9.92C-27.7844 9.884 -27.7664 9.833 -27.7664 9.767ZM-25.6053 5.222H-24.0303V11H-25.6053V5.222ZM-22.4013 7.526V8.651H-24.9303V7.526H-22.4013ZM-22.1403 5.222V6.347H-25.0473V5.222H-22.1403ZM-22.0593 9.875V11H-25.0473V9.875H-22.0593ZM-17.5466 9.677V8.858C-17.5466 8.792 -17.5646 8.744 -17.6006 8.714C-17.6366 8.678 -17.6936 8.66 -17.7716 8.66H-18.6356C-19.1036 8.66 -19.4246 8.555 -19.5986 8.345C-19.7666 8.135 -19.8506 7.862 -19.8506 7.526V6.338C-19.8506 6.002 -19.7516 5.732 -19.5536 5.528C-19.3556 5.324 -19.0166 5.222 -18.5366 5.222H-17.3036C-16.8236 5.222 -16.4846 5.324 -16.2866 5.528C-16.0886 5.732 -15.9896 6.002 -15.9896 6.338V7.031H-17.5646V6.545C-17.5646 6.479 -17.5826 6.431 -17.6186 6.401C-17.6546 6.365 -17.7116 6.347 -17.7896 6.347H-18.0506C-18.1286 6.347 -18.1856 6.365 -18.2216 6.401C-18.2576 6.431 -18.2756 6.479 -18.2756 6.545V7.4C-18.2756 7.466 -18.2576 7.517 -18.2216 7.553C-18.1856 7.583 -18.1286 7.598 -18.0506 7.598H-17.2046C-16.7366 7.598 -16.4156 7.697 -16.2416 7.895C-16.0616 8.093 -15.9716 8.36 -15.9716 8.696V9.884C-15.9716 10.22 -16.0706 10.49 -16.2686 10.694C-16.4666 10.898 -16.8056 11 -17.2856 11H-18.5096C-18.9896 11 -19.3316 10.898 -19.5356 10.694C-19.7336 10.49 -19.8326 10.22 -19.8326 9.884V9.191H-18.2576V9.677C-18.2576 9.743 -18.2396 9.794 -18.2036 9.83C-18.1676 9.86 -18.1106 9.875 -18.0326 9.875H-17.7716C-17.6936 9.875 -17.6366 9.86 -17.6006 9.83C-17.5646 9.794 -17.5466 9.743 -17.5466 9.677ZM-14.5477 5.762H-12.9727V11H-14.5477V5.762ZM-11.8567 5.222V6.347H-15.6547V5.222H-11.8567ZM-7.91794 9.02V10.136H-10.8069V9.02H-7.91794ZM-6.92794 11H-8.51194L-9.37594 6.941L-10.2669 11H-11.8149L-10.3299 5.222H-8.41294L-6.92794 11ZM-4.14722 7.679V6.545C-4.14722 6.479 -4.16522 6.431 -4.20122 6.401C-4.23722 6.365 -4.29422 6.347 -4.37222 6.347H-6.04622V5.222H-3.89522C-3.41522 5.222 -3.07622 5.324 -2.87822 5.528C-2.67422 5.732 -2.57222 6.002 -2.57222 6.338V7.832C-2.57222 8.168 -2.67422 8.438 -2.87822 8.642C-3.07622 8.846 -3.41522 8.948 -3.89522 8.948H-6.04622V7.877H-4.37222C-4.29422 7.877 -4.23722 7.862 -4.20122 7.832C-4.16522 7.796 -4.14722 7.745 -4.14722 7.679ZM-6.56822 5.222H-4.99322V11H-6.56822V5.222ZM-5.17322 8.318H-3.63422L-2.28422 11H-3.97622L-5.17322 8.318ZM-1.15318 5.762H0.421824V11H-1.15318V5.762ZM1.53782 5.222V6.347H-2.26018V5.222H1.53782ZM1.93959 5.222H3.51459V11H1.93959V5.222ZM6.87054 5.222H8.31054V11H6.96054L5.67354 7.967V11H4.23354V5.222H5.58354L6.87054 8.309V5.222ZM10.5624 6.455V9.767C10.5624 9.833 10.5804 9.884 10.6164 9.92C10.6524 9.95 10.7094 9.965 10.7874 9.965H10.9944V11H10.3104C9.83036 11 9.48836 10.898 9.28436 10.694C9.08636 10.49 8.98736 10.22 8.98736 9.884V6.338C8.98736 6.002 9.08636 5.732 9.28436 5.528C9.48836 5.324 9.83036 5.222 10.3104 5.222H11.0304V6.257H10.7874C10.7094 6.257 10.6524 6.275 10.6164 6.311C10.5804 6.341 10.5624 6.389 10.5624 6.455ZM12.9114 7.805V8.804H10.8864V7.805H12.9114ZM11.3364 7.202V6.455C11.3364 6.389 11.3184 6.341 11.2824 6.311C11.2464 6.275 11.1894 6.257 11.1114 6.257H10.8684V5.222H11.5884C12.0684 5.222 12.4074 5.324 12.6054 5.528C12.8094 5.732 12.9114 6.002 12.9114 6.338V7.202H11.3364ZM11.3364 9.767V8.498H12.9114V9.884C12.9114 10.22 12.8094 10.49 12.6054 10.694C12.4074 10.898 12.0684 11 11.5884 11H10.9044V9.965H11.1114C11.1894 9.965 11.2464 9.95 11.2824 9.92C11.3184 9.884 11.3364 9.833 11.3364 9.767ZM17.2059 8.084C17.2059 7.778 17.2899 7.532 17.4579 7.346C17.6319 7.16 17.9109 7.067 18.2949 7.067H18.4389C18.6489 7.067 18.8139 7.115 18.9339 7.211C19.0599 7.301 19.1439 7.427 19.1859 7.589V7.067H20.4009V9.344H20.7969C20.8749 9.344 20.9319 9.329 20.9679 9.299C21.0039 9.263 21.0219 9.212 21.0219 9.146V6.671C21.0219 6.605 21.0039 6.557 20.9679 6.527C20.9319 6.491 20.8749 6.473 20.7969 6.473H16.9179C16.8399 6.473 16.7829 6.491 16.7469 6.527C16.7109 6.557 16.6929 6.605 16.6929 6.671V10.703C16.6929 10.769 16.7109 10.82 16.7469 10.856C16.7829 10.886 16.8399 10.901 16.9179 10.901H20.4099V11.936H16.5399C16.1139 11.936 15.8079 11.834 15.6219 11.63C15.4359 11.426 15.3429 11.156 15.3429 10.82V6.554C15.3429 6.218 15.4359 5.948 15.6219 5.744C15.8079 5.54 16.1139 5.438 16.5399 5.438H21.1569C21.5829 5.438 21.8859 5.54 22.0659 5.744C22.2459 5.948 22.3359 6.218 22.3359 6.554V9.164C22.3359 9.5 22.2429 9.77 22.0569 9.974C21.8709 10.178 21.5649 10.28 21.1389 10.28H19.1949V9.731C19.1589 9.899 19.0779 10.034 18.9519 10.136C18.8319 10.232 18.6609 10.28 18.4389 10.28H18.2949C17.9109 10.28 17.6319 10.187 17.4579 10.001C17.2899 9.815 17.2059 9.569 17.2059 9.263V8.084ZM18.5199 8.192V9.155C18.5199 9.215 18.5349 9.26 18.5649 9.29C18.6009 9.32 18.6519 9.335 18.7179 9.335H18.9429C19.0149 9.335 19.0689 9.317 19.1049 9.281C19.1409 9.239 19.1589 9.176 19.1589 9.092V8.255C19.1589 8.171 19.1409 8.111 19.1049 8.075C19.0689 8.033 19.0149 8.012 18.9429 8.012H18.7179C18.6519 8.012 18.6009 8.027 18.5649 8.057C18.5349 8.081 18.5199 8.126 18.5199 8.192ZM25.0672 9.965V8.822H29.1172V9.965H25.0672ZM24.6442 9.965V8.57L26.8132 5.222H28.3972L25.3372 9.965H24.6442ZM27.0292 7.679H28.5052V11H27.0292V7.679ZM30.9157 6.545V7.544C30.9157 7.61 30.9337 7.661 30.9697 7.697C31.0057 7.727 31.0627 7.742 31.1407 7.742H32.0857V8.777H30.7087C30.2287 8.777 29.8867 8.675 29.6827 8.471C29.4847 8.267 29.3857 7.997 29.3857 7.661V6.338C29.3857 6.002 29.4847 5.732 29.6827 5.528C29.8867 5.324 30.2287 5.222 30.7087 5.222H31.3477V6.347H31.1407C31.0627 6.347 31.0057 6.365 30.9697 6.401C30.9337 6.431 30.9157 6.479 30.9157 6.545ZM31.6987 9.677V6.545C31.6987 6.479 31.6807 6.431 31.6447 6.401C31.6087 6.365 31.5517 6.347 31.4737 6.347H31.2667V5.222H31.9057C32.3857 5.222 32.7247 5.324 32.9227 5.528C33.1267 5.732 33.2287 6.002 33.2287 6.338V9.884C33.2287 10.22 33.1267 10.49 32.9227 10.694C32.7247 10.898 32.3857 11 31.9057 11H31.2667V9.875H31.4737C31.5517 9.875 31.6087 9.86 31.6447 9.83C31.6807 9.794 31.6987 9.743 31.6987 9.677ZM30.9877 9.281V9.677C30.9877 9.743 31.0057 9.794 31.0417 9.83C31.0777 9.86 31.1347 9.875 31.2127 9.875H31.4017V11H30.7807C30.3007 11 29.9587 10.898 29.7547 10.694C29.5567 10.49 29.4577 10.22 29.4577 9.884V9.281H30.9877Z" fill="black"/>
</g>
<g opacity="0.8">
<circle cx="42" cy="8.5" r="2" fill="black"/>
<circle cx="42" cy="8.5" r="1" fill="#FD0001"/>
</g>
<path opacity="0.8" d="M50.5866 5.222H53.2326C53.7126 5.222 54.0516 5.324 54.2496 5.528C54.4536 5.732 54.5556 6.002 54.5556 6.338V7.076C54.5556 7.31 54.5256 7.514 54.4656 7.688C54.4116 7.862 54.2976 7.997 54.1236 8.093C54.2976 8.171 54.4116 8.288 54.4656 8.444C54.5256 8.6 54.5556 8.792 54.5556 9.02V9.884C54.5556 10.22 54.4536 10.49 54.2496 10.694C54.0516 10.898 53.7126 11 53.2326 11H50.5866V5.222ZM53.0076 9.767V8.822C53.0076 8.756 52.9896 8.708 52.9536 8.678C52.9176 8.642 52.8606 8.624 52.7826 8.624H52.1346V9.965H52.7826C52.8606 9.965 52.9176 9.95 52.9536 9.92C52.9896 9.884 53.0076 9.833 53.0076 9.767ZM53.0076 7.391V6.455C53.0076 6.389 52.9896 6.341 52.9536 6.311C52.9176 6.275 52.8606 6.257 52.7826 6.257H52.1346V7.589H52.7826C52.8606 7.589 52.9176 7.574 52.9536 7.544C52.9896 7.508 53.0076 7.457 53.0076 7.391ZM55.2272 5.222H56.8022V11H55.2272V5.222ZM58.3131 5.762H59.8881V11H58.3131V5.762ZM61.0041 5.222V6.347H57.2061V5.222H61.0041ZM61.4059 5.222H62.9809V11H61.4059V5.222ZM64.6099 7.526V8.651H62.0809V7.526H64.6099ZM64.8709 5.222V6.347H61.9639V5.222H64.8709ZM64.9519 9.875V11H61.9639V9.875H64.9519ZM67.2506 5.222H68.8256V11H67.2506V5.222ZM72.1816 5.222H73.6216V11H72.2716L70.9846 7.967V11H69.5446V5.222H70.8946L72.1816 8.309V5.222ZM75.1354 5.762H76.7104V11H75.1354V5.762ZM77.8264 5.222V6.347H74.0284V5.222H77.8264ZM80.6042 7.634V6.545C80.6042 6.479 80.5862 6.431 80.5502 6.401C80.5142 6.365 80.4572 6.347 80.3792 6.347H80.0822V5.222H80.8562C81.3362 5.222 81.6752 5.324 81.8732 5.528C82.0772 5.732 82.1792 6.002 82.1792 6.338V7.634L80.6042 7.634ZM80.6042 9.677V7.517L82.1792 7.517V9.884C82.1792 10.22 82.0772 10.49 81.8732 10.694C81.6752 10.898 81.3362 11 80.8562 11H80.0822V9.875H80.3792C80.4572 9.875 80.5142 9.86 80.5502 9.83C80.5862 9.794 80.6042 9.743 80.6042 9.677ZM79.7762 6.545V7.634H78.2012V6.338C78.2012 6.002 78.3002 5.732 78.4982 5.528C78.7022 5.324 79.0442 5.222 79.5242 5.222H80.2982V6.347H80.0012C79.9232 6.347 79.8662 6.365 79.8302 6.401C79.7942 6.431 79.7762 6.479 79.7762 6.545ZM79.7762 7.517V9.677C79.7762 9.743 79.7942 9.794 79.8302 9.83C79.8662 9.86 79.9232 9.875 80.0012 9.875H80.2982V11H79.5242C79.0442 11 78.7022 10.898 78.4982 10.694C78.3002 10.49 78.2012 10.22 78.2012 9.884V7.517H79.7762ZM84.6705 5.222H86.2455V11H84.6705V5.222ZM87.8835 7.751V8.786H85.3545V7.751H87.8835ZM88.1355 5.222V6.347H85.2285V5.222H88.1355ZM88.6344 5.222H90.2094V11H88.6344V5.222ZM89.1564 11V9.875H92.0004V11H89.1564ZM95.898 9.02V10.136H93.009V9.02H95.898ZM96.888 11H95.304L94.44 6.941L93.549 11H92.001L93.486 5.222H95.403L96.888 11ZM99.9837 5.222H101.622L100.2 11H98.3727L96.9507 5.222L98.5887 5.222L99.2817 9.083L99.9837 5.222ZM104.423 7.634V6.545C104.423 6.479 104.405 6.431 104.369 6.401C104.333 6.365 104.276 6.347 104.198 6.347H103.901V5.222H104.675C105.155 5.222 105.494 5.324 105.692 5.528C105.896 5.732 105.998 6.002 105.998 6.338V7.634H104.423ZM104.423 9.677V7.517H105.998V9.884C105.998 10.22 105.896 10.49 105.692 10.694C105.494 10.898 105.155 11 104.675 11H103.901V9.875H104.198C104.276 9.875 104.333 9.86 104.369 9.83C104.405 9.794 104.423 9.743 104.423 9.677ZM103.595 6.545V7.634H102.02V6.338C102.02 6.002 102.119 5.732 102.317 5.528C102.521 5.324 102.863 5.222 103.343 5.222H104.117V6.347H103.82C103.742 6.347 103.685 6.365 103.649 6.401C103.613 6.431 103.595 6.479 103.595 6.545ZM103.595 7.517V9.677C103.595 9.743 103.613 9.794 103.649 9.83C103.685 9.86 103.742 9.875 103.82 9.875H104.117V11H103.343C102.863 11 102.521 10.898 102.317 10.694C102.119 10.49 102.02 10.22 102.02 9.884V7.517H103.595ZM109.09 9.677V5.222H110.665V9.884C110.665 10.22 110.563 10.49 110.359 10.694C110.161 10.898 109.822 11 109.342 11H108.568V9.875H108.865C108.943 9.875 109 9.86 109.036 9.83C109.072 9.794 109.09 9.743 109.09 9.677ZM108.262 5.222V9.677C108.262 9.743 108.28 9.794 108.316 9.83C108.352 9.86 108.409 9.875 108.487 9.875H108.784V11H108.01C107.53 11 107.188 10.898 106.984 10.694C106.786 10.49 106.687 10.22 106.687 9.884V5.222H108.262ZM113.81 7.679V6.545C113.81 6.479 113.792 6.431 113.756 6.401C113.72 6.365 113.663 6.347 113.585 6.347H111.911V5.222H114.062C114.542 5.222 114.881 5.324 115.079 5.528C115.283 5.732 115.385 6.002 115.385 6.338V7.832C115.385 8.168 115.283 8.438 115.079 8.642C114.881 8.846 114.542 8.948 114.062 8.948H111.911V7.877H113.585C113.663 7.877 113.72 7.862 113.756 7.832C113.792 7.796 113.81 7.745 113.81 7.679ZM111.389 5.222H112.964V11H111.389V5.222ZM112.784 8.318H114.323L115.673 11L113.981 11L112.784 8.318ZM118.226 9.677V8.858C118.226 8.792 118.208 8.744 118.172 8.714C118.136 8.678 118.079 8.66 118.001 8.66H117.137C116.669 8.66 116.348 8.555 116.174 8.345C116.006 8.135 115.922 7.862 115.922 7.526V6.338C115.922 6.002 116.021 5.732 116.219 5.528C116.417 5.324 116.756 5.222 117.236 5.222H118.469C118.949 5.222 119.288 5.324 119.486 5.528C119.684 5.732 119.783 6.002 119.783 6.338V7.031H118.208V6.545C118.208 6.479 118.19 6.431 118.154 6.401C118.118 6.365 118.061 6.347 117.983 6.347H117.722C117.644 6.347 117.587 6.365 117.551 6.401C117.515 6.431 117.497 6.479 117.497 6.545V7.4C117.497 7.466 117.515 7.517 117.551 7.553C117.587 7.583 117.644 7.598 117.722 7.598H118.568C119.036 7.598 119.357 7.697 119.531 7.895C119.711 8.093 119.801 8.36 119.801 8.696V9.884C119.801 10.22 119.702 10.49 119.504 10.694C119.306 10.898 118.967 11 118.487 11H117.263C116.783 11 116.441 10.898 116.237 10.694C116.039 10.49 115.94 10.22 115.94 9.884V9.191H117.515V9.677C117.515 9.743 117.533 9.794 117.569 9.83C117.605 9.86 117.662 9.875 117.74 9.875H118.001C118.079 9.875 118.136 9.86 118.172 9.83C118.208 9.794 118.226 9.743 118.226 9.677ZM123.027 5.762H124.602V11H123.027V5.762ZM125.718 5.222V6.347H121.92V5.222H125.718ZM129 7.589V8.714H127.38V7.589H129ZM126.12 5.222H127.668V11H126.12V5.222ZM128.802 5.222L130.35 5.222V11H128.802V5.222ZM134.605 9.02V10.136H131.716V9.02H134.605ZM135.595 11H134.011L133.147 6.941L132.256 11H130.708L132.193 5.222H134.11L135.595 11ZM136.747 5.762H138.322V11H136.747V5.762ZM139.438 5.222V6.347H135.64V5.222H139.438ZM141.641 5.222H143.216V11H141.641V5.222ZM144.854 7.751V8.786H142.325V7.751H144.854ZM145.106 5.222V6.347H142.199V5.222H145.106ZM145.605 5.222H147.18V11H145.605V5.222ZM146.127 11V9.875H148.971V11H146.127ZM149.332 5.222H150.907V11H149.332V5.222ZM154.047 7.679V6.545C154.047 6.479 154.029 6.431 153.993 6.401C153.957 6.365 153.9 6.347 153.822 6.347H152.148V5.222H154.299C154.779 5.222 155.118 5.324 155.316 5.528C155.52 5.732 155.622 6.002 155.622 6.338V7.832C155.622 8.168 155.52 8.438 155.316 8.642C155.118 8.846 154.779 8.948 154.299 8.948H152.148V7.877H153.822C153.9 7.877 153.957 7.862 153.993 7.832C154.029 7.796 154.047 7.745 154.047 7.679ZM151.626 5.222H153.201V11H151.626V5.222ZM153.021 8.318H154.56L155.91 11H154.218L153.021 8.318ZM157.041 5.762H158.616V11H157.041V5.762ZM159.732 5.222V6.347H155.934V5.222H159.732Z" fill="black"/>
<g opacity="0.8">
<circle cx="168" cy="8.5" r="2" fill="black"/>
<circle cx="168" cy="8.5" r="1" fill="#FD0001"/>
</g>
<g opacity="0.8">
<path d="M179.992 9.749H178.912L178.201 7.346V11H176.797V5.222H178.516L179.452 8.309L180.388 5.222H182.107V11H180.712V7.328L179.992 9.749ZM182.826 5.222H184.401V11H182.826V5.222ZM187.757 5.222H189.197V11H187.847L186.56 7.967V11H185.12V5.222H186.47L187.757 8.309V5.222ZM189.919 5.222H191.494V11H189.919V5.222ZM196.229 9.677V8.858C196.229 8.792 196.211 8.744 196.175 8.714C196.139 8.678 196.082 8.66 196.004 8.66H195.14C194.672 8.66 194.351 8.555 194.177 8.345C194.009 8.135 193.925 7.862 193.925 7.526V6.338C193.925 6.002 194.024 5.732 194.222 5.528C194.42 5.324 194.759 5.222 195.239 5.222H196.472C196.952 5.222 197.291 5.324 197.489 5.528C197.687 5.732 197.786 6.002 197.786 6.338V7.031H196.211V6.545C196.211 6.479 196.193 6.431 196.157 6.401C196.121 6.365 196.064 6.347 195.986 6.347H195.725C195.647 6.347 195.59 6.365 195.554 6.401C195.518 6.431 195.5 6.479 195.5 6.545V7.4C195.5 7.466 195.518 7.517 195.554 7.553C195.59 7.583 195.647 7.598 195.725 7.598H196.571C197.039 7.598 197.36 7.697 197.534 7.895C197.714 8.093 197.804 8.36 197.804 8.696V9.884C197.804 10.22 197.705 10.49 197.507 10.694C197.309 10.898 196.97 11 196.49 11H195.266C194.786 11 194.444 10.898 194.24 10.694C194.042 10.49 193.943 10.22 193.943 9.884V9.191H195.518V9.677C195.518 9.743 195.536 9.794 195.572 9.83C195.608 9.86 195.665 9.875 195.743 9.875H196.004C196.082 9.875 196.139 9.86 196.175 9.83C196.211 9.794 196.229 9.743 196.229 9.677ZM198.436 5.222H200.011V11H198.436V5.222ZM203.223 7.634V6.455C203.223 6.389 203.205 6.341 203.169 6.311C203.133 6.275 203.076 6.257 202.998 6.257H201.342V5.222H203.475C203.955 5.222 204.294 5.324 204.492 5.528C204.696 5.732 204.798 6.002 204.798 6.338V7.634H203.223ZM203.223 9.767V7.517H204.798V9.884C204.798 10.22 204.696 10.49 204.492 10.694C204.294 10.898 203.955 11 203.475 11H201.342V9.965H202.998C203.076 9.965 203.133 9.95 203.169 9.92C203.205 9.884 203.223 9.833 203.223 9.767ZM200.82 5.222H202.395V11H200.82V5.222ZM205.493 5.222H207.068V11H205.493V5.222ZM208.697 7.526V8.651H206.168V7.526L208.697 7.526ZM208.958 5.222V6.347L206.051 6.347V5.222H208.958ZM209.039 9.875V11H206.051V9.875H209.039ZM211.75 9.677V8.858C211.75 8.792 211.732 8.744 211.696 8.714C211.66 8.678 211.603 8.66 211.525 8.66H210.661C210.193 8.66 209.872 8.555 209.698 8.345C209.53 8.135 209.446 7.862 209.446 7.526V6.338C209.446 6.002 209.545 5.732 209.743 5.528C209.941 5.324 210.28 5.222 210.76 5.222H211.993C212.473 5.222 212.812 5.324 213.01 5.528C213.208 5.732 213.307 6.002 213.307 6.338V7.031H211.732V6.545C211.732 6.479 211.714 6.431 211.678 6.401C211.642 6.365 211.585 6.347 211.507 6.347H211.246C211.168 6.347 211.111 6.365 211.075 6.401C211.039 6.431 211.021 6.479 211.021 6.545V7.4C211.021 7.466 211.039 7.517 211.075 7.553C211.111 7.583 211.168 7.598 211.246 7.598H212.092C212.56 7.598 212.881 7.697 213.055 7.895C213.235 8.093 213.325 8.36 213.325 8.696V9.884C213.325 10.22 213.226 10.49 213.028 10.694C212.83 10.898 212.491 11 212.011 11H210.787C210.307 11 209.965 10.898 209.761 10.694C209.563 10.49 209.464 10.22 209.464 9.884V9.191H211.039V9.677C211.039 9.743 211.057 9.794 211.093 9.83C211.129 9.86 211.186 9.875 211.264 9.875H211.525C211.603 9.875 211.66 9.86 211.696 9.83C211.732 9.794 211.75 9.743 211.75 9.677ZM218.135 7.634V6.545C218.135 6.479 218.117 6.431 218.081 6.401C218.045 6.365 217.988 6.347 217.91 6.347H217.613V5.222H218.387C218.867 5.222 219.206 5.324 219.404 5.528C219.608 5.732 219.71 6.002 219.71 6.338V7.634H218.135ZM218.135 9.677V7.517H219.71V9.884C219.71 10.22 219.608 10.49 219.404 10.694C219.206 10.898 218.867 11 218.387 11H217.613V9.875H217.91C217.988 9.875 218.045 9.86 218.081 9.83C218.117 9.794 218.135 9.743 218.135 9.677ZM217.307 6.545V7.634H215.732V6.338C215.732 6.002 215.831 5.732 216.029 5.528C216.233 5.324 216.575 5.222 217.055 5.222H217.829V6.347H217.532C217.454 6.347 217.397 6.365 217.361 6.401C217.325 6.431 217.307 6.479 217.307 6.545ZM217.307 7.517V9.677C217.307 9.743 217.325 9.794 217.361 9.83C217.397 9.86 217.454 9.875 217.532 9.875H217.829V11H217.055C216.575 11 216.233 10.898 216.029 10.694C215.831 10.49 215.732 10.22 215.732 9.884V7.517H217.307ZM220.4 5.222H221.975V11H220.4V5.222ZM223.613 7.751V8.786H221.084V7.751H223.613ZM223.865 5.222V6.347H220.958V5.222H223.865ZM228.865 9.389H227.506L225.805 5.222H227.416L228.172 7.661L228.874 5.222H230.476L228.865 9.389ZM227.398 8.552H228.973V11H227.398V8.552ZM233.208 7.634V6.545C233.208 6.479 233.19 6.431 233.154 6.401C233.118 6.365 233.061 6.347 232.983 6.347H232.686V5.222H233.46C233.94 5.222 234.279 5.324 234.477 5.528C234.681 5.732 234.783 6.002 234.783 6.338V7.634H233.208ZM233.208 9.677V7.517H234.783V9.884C234.783 10.22 234.681 10.49 234.477 10.694C234.279 10.898 233.94 11 233.46 11H232.686V9.875H232.983C233.061 9.875 233.118 9.86 233.154 9.83C233.19 9.794 233.208 9.743 233.208 9.677ZM232.38 6.545V7.634H230.805V6.338C230.805 6.002 230.904 5.732 231.102 5.528C231.306 5.324 231.648 5.222 232.128 5.222H232.902V6.347H232.605C232.527 6.347 232.47 6.365 232.434 6.401C232.398 6.431 232.38 6.479 232.38 6.545ZM232.38 7.517V9.677C232.38 9.743 232.398 9.794 232.434 9.83C232.47 9.86 232.527 9.875 232.605 9.875H232.902V11H232.128C231.648 11 231.306 10.898 231.102 10.694C230.904 10.49 230.805 10.22 230.805 9.884V7.517H232.38ZM237.876 9.677V5.222H239.451V9.884C239.451 10.22 239.349 10.49 239.145 10.694C238.947 10.898 238.608 11 238.128 11H237.354V9.875H237.651C237.729 9.875 237.786 9.86 237.822 9.83C237.858 9.794 237.876 9.743 237.876 9.677ZM237.048 5.222V9.677C237.048 9.743 237.066 9.794 237.102 9.83C237.138 9.86 237.195 9.875 237.273 9.875H237.57V11H236.796C236.316 11 235.974 10.898 235.77 10.694C235.572 10.49 235.473 10.22 235.473 9.884V5.222H237.048ZM242.596 7.679V6.545C242.596 6.479 242.578 6.431 242.542 6.401C242.506 6.365 242.449 6.347 242.371 6.347H240.697V5.222H242.848C243.328 5.222 243.667 5.324 243.865 5.528C244.069 5.732 244.171 6.002 244.171 6.338V7.832C244.171 8.168 244.069 8.438 243.865 8.642C243.667 8.846 243.328 8.948 242.848 8.948H240.697V7.877H242.371C242.449 7.877 242.506 7.862 242.542 7.832C242.578 7.796 242.596 7.745 242.596 7.679ZM240.175 5.222H241.75V11H240.175V5.222ZM241.57 8.318H243.109L244.459 11H242.767L241.57 8.318ZM248.13 6.455V9.767C248.13 9.833 248.148 9.884 248.184 9.92C248.22 9.95 248.277 9.965 248.355 9.965H248.589V11H247.878C247.398 11 247.056 10.898 246.852 10.694C246.654 10.49 246.555 10.22 246.555 9.884V6.338C246.555 6.002 246.654 5.732 246.852 5.528C247.056 5.324 247.398 5.222 247.878 5.222H248.589V6.257H248.355C248.277 6.257 248.22 6.275 248.184 6.311C248.148 6.341 248.13 6.389 248.13 6.455ZM248.895 7.382V6.455C248.895 6.389 248.877 6.341 248.841 6.311C248.805 6.275 248.748 6.257 248.67 6.257H248.436V5.222H249.147C249.627 5.222 249.966 5.324 250.164 5.528C250.368 5.732 250.47 6.002 250.47 6.338V7.382H248.895ZM248.895 9.767V8.876H250.47V9.884C250.47 10.22 250.368 10.49 250.164 10.694C249.966 10.898 249.627 11 249.147 11H248.436V9.965H248.67C248.748 9.965 248.805 9.95 248.841 9.92C248.877 9.884 248.895 9.833 248.895 9.767ZM253.936 7.589V8.714H252.316V7.589H253.936ZM251.056 5.222H252.604V11H251.056V5.222ZM253.738 5.222H255.286V11H253.738V5.222ZM258.38 7.634V6.545C258.38 6.479 258.362 6.431 258.326 6.401C258.29 6.365 258.233 6.347 258.155 6.347H257.858V5.222H258.632C259.112 5.222 259.451 5.324 259.649 5.528C259.853 5.732 259.955 6.002 259.955 6.338V7.634H258.38ZM258.38 9.677V7.517H259.955V9.884C259.955 10.22 259.853 10.49 259.649 10.694C259.451 10.898 259.112 11 258.632 11H257.858V9.875H258.155C258.233 9.875 258.29 9.86 258.326 9.83C258.362 9.794 258.38 9.743 258.38 9.677ZM257.552 6.545V7.634H255.977V6.338C255.977 6.002 256.076 5.732 256.274 5.528C256.478 5.324 256.82 5.222 257.3 5.222H258.074V6.347H257.777C257.699 6.347 257.642 6.365 257.606 6.401C257.57 6.431 257.552 6.479 257.552 6.545ZM257.552 7.517V9.677C257.552 9.743 257.57 9.794 257.606 9.83C257.642 9.86 257.699 9.875 257.777 9.875H258.074V11H257.3C256.82 11 256.478 10.898 256.274 10.694C256.076 10.49 255.977 10.22 255.977 9.884V7.517H257.552ZM260.645 5.222H262.22V11H260.645V5.222ZM264.469 6.455V9.767C264.469 9.833 264.487 9.884 264.523 9.92C264.559 9.95 264.616 9.965 264.694 9.965H264.928V11H264.217C263.737 11 263.395 10.898 263.191 10.694C262.993 10.49 262.894 10.22 262.894 9.884V6.338C262.894 6.002 262.993 5.732 263.191 5.528C263.395 5.324 263.737 5.222 264.217 5.222H264.928V6.257H264.694C264.616 6.257 264.559 6.275 264.523 6.311C264.487 6.341 264.469 6.389 264.469 6.455ZM265.234 7.382V6.455C265.234 6.389 265.216 6.341 265.18 6.311C265.144 6.275 265.087 6.257 265.009 6.257H264.775V5.222H265.486C265.966 5.222 266.305 5.324 266.503 5.528C266.707 5.732 266.809 6.002 266.809 6.338V7.382H265.234ZM265.234 9.767V8.876H266.809V9.884C266.809 10.22 266.707 10.49 266.503 10.694C266.305 10.898 265.966 11 265.486 11H264.775V9.965H265.009C265.087 9.965 265.144 9.95 265.18 9.92C265.216 9.884 265.234 9.833 265.234 9.767ZM267.395 5.222H268.97V11H267.395V5.222ZM270.599 7.526V8.651H268.07V7.526H270.599ZM270.86 5.222V6.347H267.953V5.222H270.86ZM270.941 9.875V11H267.953V9.875H270.941ZM275.453 9.677V8.858C275.453 8.792 275.435 8.744 275.399 8.714C275.363 8.678 275.306 8.66 275.228 8.66H274.364C273.896 8.66 273.575 8.555 273.401 8.345C273.233 8.135 273.149 7.862 273.149 7.526V6.338C273.149 6.002 273.248 5.732 273.446 5.528C273.644 5.324 273.983 5.222 274.463 5.222H275.696C276.176 5.222 276.515 5.324 276.713 5.528C276.911 5.732 277.01 6.002 277.01 6.338V7.031H275.435V6.545C275.435 6.479 275.417 6.431 275.381 6.401C275.345 6.365 275.288 6.347 275.21 6.347H274.949C274.871 6.347 274.814 6.365 274.778 6.401C274.742 6.431 274.724 6.479 274.724 6.545V7.4C274.724 7.466 274.742 7.517 274.778 7.553C274.814 7.583 274.871 7.598 274.949 7.598H275.795C276.263 7.598 276.584 7.697 276.758 7.895C276.938 8.093 277.028 8.36 277.028 8.696V9.884C277.028 10.22 276.929 10.49 276.731 10.694C276.533 10.898 276.194 11 275.714 11H274.49C274.01 11 273.668 10.898 273.464 10.694C273.266 10.49 273.167 10.22 273.167 9.884V9.191H274.742V9.677C274.742 9.743 274.76 9.794 274.796 9.83C274.832 9.86 274.889 9.875 274.967 9.875H275.228C275.306 9.875 275.363 9.86 275.399 9.83C275.435 9.794 275.453 9.743 275.453 9.677ZM278.452 5.762H280.027V11H278.452V5.762ZM281.143 5.222V6.347H277.345V5.222H281.143ZM285.082 9.02V10.136H282.193V9.02H285.082ZM286.072 11H284.488L283.624 6.941L282.733 11H281.185L282.67 5.222H284.587L286.072 11ZM288.853 7.679V6.545C288.853 6.479 288.835 6.431 288.799 6.401C288.763 6.365 288.706 6.347 288.628 6.347H286.954V5.222H289.105C289.585 5.222 289.924 5.324 290.122 5.528C290.326 5.732 290.428 6.002 290.428 6.338V7.832C290.428 8.168 290.326 8.438 290.122 8.642C289.924 8.846 289.585 8.948 289.105 8.948H286.954V7.877H288.628C288.706 7.877 288.763 7.862 288.799 7.832C288.835 7.796 288.853 7.745 288.853 7.679ZM286.432 5.222H288.007V11H286.432V5.222ZM287.827 8.318H289.366L290.716 11H289.024L287.827 8.318ZM291.847 5.762H293.422V11H291.847V5.762ZM294.538 5.222V6.347H290.74V5.222H294.538ZM294.94 5.222H296.515V11H294.94V5.222ZM299.871 5.222H301.311V11H299.961L298.674 7.967V11H297.234V5.222H298.584L299.871 8.309V5.222ZM303.562 6.455V9.767C303.562 9.833 303.58 9.884 303.616 9.92C303.652 9.95 303.709 9.965 303.787 9.965H303.994V11H303.31C302.83 11 302.488 10.898 302.284 10.694C302.086 10.49 301.987 10.22 301.987 9.884V6.338C301.987 6.002 302.086 5.732 302.284 5.528C302.488 5.324 302.83 5.222 303.31 5.222H304.03V6.257H303.787C303.709 6.257 303.652 6.275 303.616 6.311C303.58 6.341 303.562 6.389 303.562 6.455ZM305.911 7.805V8.804H303.886V7.805H305.911ZM304.336 7.202V6.455C304.336 6.389 304.318 6.341 304.282 6.311C304.246 6.275 304.189 6.257 304.111 6.257H303.868V5.222H304.588C305.068 5.222 305.407 5.324 305.605 5.528C305.809 5.732 305.911 6.002 305.911 6.338V7.202H304.336ZM304.336 9.767V8.498H305.911V9.884C305.911 10.22 305.809 10.49 305.605 10.694C305.407 10.898 305.068 11 304.588 11H303.904V9.965H304.111C304.189 9.965 304.246 9.95 304.282 9.92C304.318 9.884 304.336 9.833 304.336 9.767ZM310.206 8.084C310.206 7.778 310.29 7.532 310.458 7.346C310.632 7.16 310.911 7.067 311.295 7.067H311.439C311.649 7.067 311.814 7.115 311.934 7.211C312.06 7.301 312.144 7.427 312.186 7.589V7.067H313.401V9.344H313.797C313.875 9.344 313.932 9.329 313.968 9.299C314.004 9.263 314.022 9.212 314.022 9.146V6.671C314.022 6.605 314.004 6.557 313.968 6.527C313.932 6.491 313.875 6.473 313.797 6.473H309.918C309.84 6.473 309.783 6.491 309.747 6.527C309.711 6.557 309.693 6.605 309.693 6.671V10.703C309.693 10.769 309.711 10.82 309.747 10.856C309.783 10.886 309.84 10.901 309.918 10.901H313.41V11.936H309.54C309.114 11.936 308.808 11.834 308.622 11.63C308.436 11.426 308.343 11.156 308.343 10.82V6.554C308.343 6.218 308.436 5.948 308.622 5.744C308.808 5.54 309.114 5.438 309.54 5.438H314.157C314.583 5.438 314.886 5.54 315.066 5.744C315.246 5.948 315.336 6.218 315.336 6.554V9.164C315.336 9.5 315.243 9.77 315.057 9.974C314.871 10.178 314.565 10.28 314.139 10.28H312.195V9.731C312.159 9.899 312.078 10.034 311.952 10.136C311.832 10.232 311.661 10.28 311.439 10.28H311.295C310.911 10.28 310.632 10.187 310.458 10.001C310.29 9.815 310.206 9.569 310.206 9.263V8.084ZM311.52 8.192V9.155C311.52 9.215 311.535 9.26 311.565 9.29C311.601 9.32 311.652 9.335 311.718 9.335H311.943C312.015 9.335 312.069 9.317 312.105 9.281C312.141 9.239 312.159 9.176 312.159 9.092V8.255C312.159 8.171 312.141 8.111 312.105 8.075C312.069 8.033 312.015 8.012 311.943 8.012H311.718C311.652 8.012 311.601 8.027 311.565 8.057C311.535 8.081 311.52 8.126 311.52 8.192ZM318.067 9.965V8.822H322.117V9.965H318.067ZM317.644 9.965V8.57L319.813 5.222H321.397L318.337 9.965H317.644ZM320.029 7.679H321.505V11H320.029V7.679ZM323.916 6.545V7.544C323.916 7.61 323.934 7.661 323.97 7.697C324.006 7.727 324.063 7.742 324.141 7.742H325.086V8.777H323.709C323.229 8.777 322.887 8.675 322.683 8.471C322.485 8.267 322.386 7.997 322.386 7.661V6.338C322.386 6.002 322.485 5.732 322.683 5.528C322.887 5.324 323.229 5.222 323.709 5.222H324.348V6.347H324.141C324.063 6.347 324.006 6.365 323.97 6.401C323.934 6.431 323.916 6.479 323.916 6.545ZM324.699 9.677V6.545C324.699 6.479 324.681 6.431 324.645 6.401C324.609 6.365 324.552 6.347 324.474 6.347H324.267V5.222H324.906C325.386 5.222 325.725 5.324 325.923 5.528C326.127 5.732 326.229 6.002 326.229 6.338V9.884C326.229 10.22 326.127 10.49 325.923 10.694C325.725 10.898 325.386 11 324.906 11H324.267V9.875H324.474C324.552 9.875 324.609 9.86 324.645 9.83C324.681 9.794 324.699 9.743 324.699 9.677ZM323.988 9.281V9.677C323.988 9.743 324.006 9.794 324.042 9.83C324.078 9.86 324.135 9.875 324.213 9.875H324.402V11H323.781C323.301 11 322.959 10.898 322.755 10.694C322.557 10.49 322.458 10.22 322.458 9.884V9.281H323.988Z" fill="black"/>
</g>
<g opacity="0.8">
<circle cx="335" cy="8.5" r="2" fill="black"/>
<circle cx="335" cy="8.5" r="1" fill="#FD0001"/>
</g>
<path opacity="0.8" d="M343.587 5.222H346.233C346.713 5.222 347.052 5.324 347.25 5.528C347.454 5.732 347.556 6.002 347.556 6.338V7.076C347.556 7.31 347.526 7.514 347.466 7.688C347.412 7.862 347.298 7.997 347.124 8.093C347.298 8.171 347.412 8.288 347.466 8.444C347.526 8.6 347.556 8.792 347.556 9.02V9.884C347.556 10.22 347.454 10.49 347.25 10.694C347.052 10.898 346.713 11 346.233 11H343.587V5.222ZM346.008 9.767V8.822C346.008 8.756 345.99 8.708 345.954 8.678C345.918 8.642 345.861 8.624 345.783 8.624H345.135V9.965H345.783C345.861 9.965 345.918 9.95 345.954 9.92C345.99 9.884 346.008 9.833 346.008 9.767ZM346.008 7.391V6.455C346.008 6.389 345.99 6.341 345.954 6.311C345.918 6.275 345.861 6.257 345.783 6.257H345.135V7.589H345.783C345.861 7.589 345.918 7.574 345.954 7.544C345.99 7.508 346.008 7.457 346.008 7.391ZM348.227 5.222H349.802V11H348.227V5.222ZM351.313 5.762H352.888V11H351.313V5.762ZM354.004 5.222V6.347H350.206V5.222H354.004ZM354.406 5.222H355.981V11H354.406V5.222ZM357.61 7.526V8.651H355.081V7.526H357.61ZM357.871 5.222V6.347H354.964V5.222H357.871ZM357.952 9.875V11H354.964V9.875H357.952ZM360.251 5.222H361.826V11H360.251V5.222ZM365.182 5.222H366.622V11H365.272L363.985 7.967V11H362.545V5.222H363.895L365.182 8.309V5.222ZM368.135 5.762H369.71V11H368.135V5.762ZM370.826 5.222V6.347H367.028V5.222H370.826ZM373.604 7.634V6.545C373.604 6.479 373.586 6.431 373.55 6.401C373.514 6.365 373.457 6.347 373.379 6.347H373.082V5.222H373.856C374.336 5.222 374.675 5.324 374.873 5.528C375.077 5.732 375.179 6.002 375.179 6.338V7.634L373.604 7.634ZM373.604 9.677V7.517L375.179 7.517V9.884C375.179 10.22 375.077 10.49 374.873 10.694C374.675 10.898 374.336 11 373.856 11H373.082V9.875H373.379C373.457 9.875 373.514 9.86 373.55 9.83C373.586 9.794 373.604 9.743 373.604 9.677ZM372.776 6.545V7.634H371.201V6.338C371.201 6.002 371.3 5.732 371.498 5.528C371.702 5.324 372.044 5.222 372.524 5.222H373.298V6.347H373.001C372.923 6.347 372.866 6.365 372.83 6.401C372.794 6.431 372.776 6.479 372.776 6.545ZM372.776 7.517V9.677C372.776 9.743 372.794 9.794 372.83 9.83C372.866 9.86 372.923 9.875 373.001 9.875H373.298V11H372.524C372.044 11 371.702 10.898 371.498 10.694C371.3 10.49 371.201 10.22 371.201 9.884V7.517H372.776ZM377.671 5.222H379.246V11H377.671V5.222ZM380.884 7.751V8.786H378.355V7.751H380.884ZM381.136 5.222V6.347H378.229V5.222H381.136ZM381.634 5.222H383.209V11H381.634V5.222ZM382.156 11V9.875H385V11H382.156ZM388.898 9.02V10.136H386.009V9.02H388.898ZM389.888 11H388.304L387.44 6.941L386.549 11H385.001L386.486 5.222H388.403L389.888 11ZM392.984 5.222H394.622L393.2 11H391.373L389.951 5.222L391.589 5.222L392.282 9.083L392.984 5.222ZM397.423 7.634V6.545C397.423 6.479 397.405 6.431 397.369 6.401C397.333 6.365 397.276 6.347 397.198 6.347H396.901V5.222H397.675C398.155 5.222 398.494 5.324 398.692 5.528C398.896 5.732 398.998 6.002 398.998 6.338V7.634H397.423ZM397.423 9.677V7.517H398.998V9.884C398.998 10.22 398.896 10.49 398.692 10.694C398.494 10.898 398.155 11 397.675 11H396.901V9.875H397.198C397.276 9.875 397.333 9.86 397.369 9.83C397.405 9.794 397.423 9.743 397.423 9.677ZM396.595 6.545V7.634H395.02V6.338C395.02 6.002 395.119 5.732 395.317 5.528C395.521 5.324 395.863 5.222 396.343 5.222H397.117V6.347H396.82C396.742 6.347 396.685 6.365 396.649 6.401C396.613 6.431 396.595 6.479 396.595 6.545ZM396.595 7.517V9.677C396.595 9.743 396.613 9.794 396.649 9.83C396.685 9.86 396.742 9.875 396.82 9.875H397.117V11H396.343C395.863 11 395.521 10.898 395.317 10.694C395.119 10.49 395.02 10.22 395.02 9.884V7.517H396.595ZM402.09 9.677V5.222H403.665V9.884C403.665 10.22 403.563 10.49 403.359 10.694C403.161 10.898 402.822 11 402.342 11H401.568V9.875H401.865C401.943 9.875 402 9.86 402.036 9.83C402.072 9.794 402.09 9.743 402.09 9.677ZM401.262 5.222V9.677C401.262 9.743 401.28 9.794 401.316 9.83C401.352 9.86 401.409 9.875 401.487 9.875H401.784V11H401.01C400.53 11 400.188 10.898 399.984 10.694C399.786 10.49 399.687 10.22 399.687 9.884V5.222H401.262ZM406.81 7.679V6.545C406.81 6.479 406.792 6.431 406.756 6.401C406.72 6.365 406.663 6.347 406.585 6.347H404.911V5.222H407.062C407.542 5.222 407.881 5.324 408.079 5.528C408.283 5.732 408.385 6.002 408.385 6.338V7.832C408.385 8.168 408.283 8.438 408.079 8.642C407.881 8.846 407.542 8.948 407.062 8.948H404.911V7.877H406.585C406.663 7.877 406.72 7.862 406.756 7.832C406.792 7.796 406.81 7.745 406.81 7.679ZM404.389 5.222H405.964V11H404.389V5.222ZM405.784 8.318H407.323L408.673 11L406.981 11L405.784 8.318ZM411.226 9.677V8.858C411.226 8.792 411.208 8.744 411.172 8.714C411.136 8.678 411.079 8.66 411.001 8.66H410.137C409.669 8.66 409.348 8.555 409.174 8.345C409.006 8.135 408.922 7.862 408.922 7.526V6.338C408.922 6.002 409.021 5.732 409.219 5.528C409.417 5.324 409.756 5.222 410.236 5.222H411.469C411.949 5.222 412.288 5.324 412.486 5.528C412.684 5.732 412.783 6.002 412.783 6.338V7.031H411.208V6.545C411.208 6.479 411.19 6.431 411.154 6.401C411.118 6.365 411.061 6.347 410.983 6.347H410.722C410.644 6.347 410.587 6.365 410.551 6.401C410.515 6.431 410.497 6.479 410.497 6.545V7.4C410.497 7.466 410.515 7.517 410.551 7.553C410.587 7.583 410.644 7.598 410.722 7.598H411.568C412.036 7.598 412.357 7.697 412.531 7.895C412.711 8.093 412.801 8.36 412.801 8.696V9.884C412.801 10.22 412.702 10.49 412.504 10.694C412.306 10.898 411.967 11 411.487 11H410.263C409.783 11 409.441 10.898 409.237 10.694C409.039 10.49 408.94 10.22 408.94 9.884V9.191H410.515V9.677C410.515 9.743 410.533 9.794 410.569 9.83C410.605 9.86 410.662 9.875 410.74 9.875H411.001C411.079 9.875 411.136 9.86 411.172 9.83C411.208 9.794 411.226 9.743 411.226 9.677ZM416.027 5.762H417.602V11H416.027V5.762ZM418.718 5.222V6.347H414.92V5.222H418.718ZM422 7.589V8.714H420.38V7.589H422ZM419.12 5.222H420.668V11H419.12V5.222ZM421.802 5.222L423.35 5.222V11H421.802V5.222ZM427.605 9.02V10.136H424.716V9.02H427.605ZM428.595 11H427.011L426.147 6.941L425.256 11H423.708L425.193 5.222H427.11L428.595 11ZM429.747 5.762H431.322V11H429.747V5.762ZM432.438 5.222V6.347H428.64V5.222H432.438ZM434.641 5.222H436.216V11H434.641V5.222ZM437.854 7.751V8.786H435.325V7.751H437.854ZM438.106 5.222V6.347H435.199V5.222H438.106ZM438.605 5.222H440.18V11H438.605V5.222ZM439.127 11V9.875H441.971V11H439.127ZM442.332 5.222H443.907V11H442.332V5.222ZM447.047 7.679V6.545C447.047 6.479 447.029 6.431 446.993 6.401C446.957 6.365 446.9 6.347 446.822 6.347H445.148V5.222H447.299C447.779 5.222 448.118 5.324 448.316 5.528C448.52 5.732 448.622 6.002 448.622 6.338V7.832C448.622 8.168 448.52 8.438 448.316 8.642C448.118 8.846 447.779 8.948 447.299 8.948H445.148V7.877H446.822C446.9 7.877 446.957 7.862 446.993 7.832C447.029 7.796 447.047 7.745 447.047 7.679ZM444.626 5.222H446.201V11H444.626V5.222ZM446.021 8.318H447.56L448.91 11H447.218L446.021 8.318ZM450.041 5.762H451.616V11H450.041V5.762ZM452.732 5.222V6.347H448.934V5.222H452.732Z" fill="black"/>
</svg>
